<svg data-name="logo" xmlns="http://www.w3.org/2000/svg" width="26.882" height="30"><defs><linearGradient id="a" x2="1" y2="1" gradientUnits="objectBoundingBox"><stop offset="0" stop-color="#7763cd"/><stop offset=".184" stop-color="#7b68d0"/><stop offset=".491" stop-color="#8673d6"/><stop offset="1" stop-color="#b9afe7"/></linearGradient></defs><g data-name="Layer 1"><path data-name="&lt;Path&gt;" d="M26.882 13.416V30H11.263a15.246 15.246 0 0 0 12.829-6.994l.037-.055a14.572 14.572 0 0 0 2.423-8.051c0-.424-.017-.843-.055-1.257q-.007-.112-.019-.224a9.37 9.37 0 0 0-.059-.476 8.908 8.908 0 0 0-.025-.182H14.1v4.423h6.984A10.621 10.621 0 0 1 20.1 19.4a9.3 9.3 0 0 1-1.477 1.984q-.274.283-.571.539l-.013.009a10.8 10.8 0 0 1-3.2 2.022 10.571 10.571 0 0 1-1.958.585 10.826 10.826 0 0 1-2.091.206c-.146 0-.291 0-.435-.011A10.788 10.788 0 0 1 0 13.953a11.09 11.09 0 0 1 .067-1.176A13.423 13.423 0 0 1 16.1.26a13.418 13.418 0 0 1 10.782 13.156z" fill="url(#a)"/></g></svg>